<svg width="512" height="512" viewBox="0 0 512 512" fill="none" xmlns="http://www.w3.org/2000/svg">
  <!-- Background circle -->
  <circle cx="256" cy="256" r="240" fill="#1976d2"/>

  <!-- Heart symbol representing feelings -->
  <path d="M256 400c-10 0-20-4-27-11l-96-96c-20-20-20-52 0-72s52-20 72 0l51 51 51-51c20-20 52-20 72 0s20 52 0 72l-96 96c-7 7-17 11-27 11z" fill="white"/>

  <!-- Circular arrow representing reflection -->
  <path d="M380 200c0-68-56-124-124-124s-124 56-124 124c0 20 5 39 13 56" stroke="white" stroke-width="8" fill="none" stroke-linecap="round"/>
  <path d="M365 235l15-35-35 15z" fill="white"/>

  <!-- Text accent -->
  <circle cx="256" cy="140" r="12" fill="white" opacity="0.8"/>
</svg>